<?xml version="1.0" encoding="UTF-8"?>
<svg width="8px" height="14px" viewBox="0 0 8 14" version="1.1" xmlns="http://www.w3.org/2000/svg" xmlns:xlink="http://www.w3.org/1999/xlink">
    <!-- Generator: Sketch 52.6 (67491) - http://www.bohemiancoding.com/sketch -->
    <title>Path Copy</title>
    <desc>Created with Sketch.</desc>
    <g id="Homepage-&amp;-Mobile" stroke="none" stroke-width="1" fill="none" fill-rule="evenodd">
        <g id="1.1CTOWN" transform="translate(-621.000000, -1509.000000)" fill="#DE131F" fill-rule="nonzero">
            <g id="Group-9" transform="translate(241.000000, 1105.000000)">
                <path d="M387.782789,410.45372 L381.722952,404.223657 C381.582796,404.079447 381.395699,404 381.196202,404 C380.996706,404 380.809609,404.079447 380.669453,404.223657 L380.223188,404.682352 C379.9328,404.981244 379.9328,405.467029 380.223188,405.765465 L385.311781,410.997098 L380.217542,416.234535 C380.077385,416.378745 380,416.570987 380,416.775977 C380,416.981195 380.077385,417.173438 380.217542,417.317762 L380.663807,417.776343 C380.804074,417.920553 380.99106,418 381.190556,418 C381.390053,418 381.577149,417.920553 381.717306,417.776343 L387.782789,411.540589 C387.923277,411.395924 388.000441,411.202771 387.999998,410.997439 C388.000441,410.791311 387.923277,410.598272 387.782789,410.45372 Z" id="Path-Copy"></path>
            </g>
        </g>
    </g>
</svg>