<?xml version="1.0" encoding="UTF-8"?>
<svg width="85px" height="80px" viewBox="0 0 85 80" version="1.1" xmlns="http://www.w3.org/2000/svg" xmlns:xlink="http://www.w3.org/1999/xlink">
    <title>Group 7</title>
    <defs>
        <polygon id="path-1" points="0 0.156176256 84.5078676 0.156176256 84.5078676 53 0 53"></polygon>
        <polygon id="path-3" points="0.282547059 0.251354839 35.9295637 0.251354839 35.9295637 31.6774202 0.282547059 31.6774202"></polygon>
    </defs>
    <g id="Homepage-&amp;-Mobile" stroke="none" stroke-width="1" fill="none" fill-rule="evenodd">
        <g id="1.1Bravo" transform="translate(-891.000000, -1283.000000)">
            <g id="Group-4" transform="translate(-2.000000, 1016.000000)">
                <g id="Group-7" transform="translate(893.000000, 267.000000)">
                    <g id="Group-3" transform="translate(0.000000, 27.000000)">
                        <mask id="mask-2" fill="white">
                            <use xlink:href="#path-1"></use>
                        </mask>
                        <g id="Clip-2"></g>
                        <path d="M10.7877671,16.6882832 C15.2051273,26.3222139 19.5580776,35.8165604 23.9696304,45.4373723 C21.9491646,46.3436198 20.0580466,47.191095 18.0782329,48.0789762 C13.6629845,38.4508178 9.31161801,28.9627683 4.90745652,19.3587485 C6.9157795,18.4467287 8.7731087,17.6029267 10.7877671,16.6882832 M18.5555,23.4486693 C22.0579224,20.9970257 25.4162143,18.5506297 28.8895994,16.2763525 C29.8531087,15.6456 31.1513385,15.2341941 32.3033261,15.2179267 C39.3224255,15.1229465 46.3436366,15.1670257 53.3643199,15.1722733 C55.3404379,15.1738475 56.8065559,16.6573228 56.8292578,18.6456099 C56.8493199,20.4192733 55.6334503,21.4483129 53.4730776,21.4546099 C49.8750963,21.4645802 46.2771149,21.4441149 42.6791335,21.4661545 C41.2879845,21.4745505 40.3012453,22.3834218 40.2959658,23.5646396 C40.2906863,24.751105 41.261059,25.6489564 42.6733261,25.6568277 C46.5785745,25.6788673 50.4848789,25.7292436 54.3880155,25.6405604 C57.0546925,25.5796891 59.2113696,24.3129366 60.2445683,21.8765109 C61.0143199,20.0629663 62.2470839,18.7689267 63.5981087,17.4738376 C65.3973634,15.7489762 67.1681087,13.9936792 68.9546925,12.2562238 C71.4006863,9.87804554 73.8297857,7.4825505 76.3079845,5.13900594 C77.3892267,4.11678812 78.661059,4.14984752 79.5886677,5.08495644 C80.4735124,5.97651089 80.456618,7.14775842 79.5390404,8.24816436 C79.3991335,8.4155604 79.2491957,8.5756099 79.0992578,8.73408515 C72.392177,15.8103723 65.6634503,22.8667188 58.9954379,29.9786891 C57.6623634,31.4007683 56.1767112,32.0037089 54.2349099,31.9858673 C47.434382,31.9234218 40.6312143,31.8793426 33.8327981,32.0210257 C32.1470528,32.0556594 30.4180155,32.6664713 28.8141025,33.2830554 C27.2429224,33.8875703 25.8063696,34.8373723 24.1834503,35.7032139 C22.2823012,31.5634416 20.4355311,27.5417386 18.5555,23.4486693 M60.152705,14.8217386 C59.6696304,14.2004317 59.3254068,13.6945703 58.9178292,13.2448574 C57.5615248,11.7482634 55.9042888,10.9170554 53.8278602,10.9228277 C46.5437298,10.9411941 39.2595994,10.9354218 31.9754689,10.9259762 C30.0220528,10.9228277 28.2629224,11.4832634 26.6722081,12.5925901 C23.443264,14.8453525 20.2159037,17.1007386 16.8222391,19.4710455 C16.557736,18.9730554 16.3053758,18.5464317 16.0984193,18.0988178 C15.346618,16.4768079 14.6323012,14.8369564 13.8604379,13.2233426 C13.2136988,11.8705307 12.1731087,11.4407584 10.8389783,12.0305802 C7.6744441,13.4306198 4.52258075,14.8595208 1.38813975,16.3235802 C-0.0668913043,17.0036594 -0.353568323,18.0237782 0.413015528,19.7098079 C3.4286677,26.3400554 6.46754969,32.9592832 9.50062422,39.5816594 C11.2623944,43.428095 13.0278602,47.2724317 14.7933261,51.1167683 C15.686618,53.061501 16.6279534,53.424105 18.5528602,52.5530158 C21.3863696,51.269996 24.2204068,49.9901248 27.044413,48.6882139 C28.9608727,47.8050554 29.2839783,46.9612535 28.4424255,45.0579762 C27.651028,43.2664713 26.8263696,41.4901842 25.9679224,39.6000257 C29.0691025,38.0068772 31.772736,35.9750356 35.5887609,36.1440059 C41.8074876,36.4189762 48.0478602,36.1849366 54.2787298,36.2311149 C57.4089472,36.2547287 59.9547236,35.1852832 62.1008416,32.8905406 C68.8797236,25.6416099 75.7304068,18.4593228 82.5372702,11.236105 C84.6469596,8.99751089 85.0804068,6.10769901 83.7520839,3.64451089 C81.6767112,-0.202974257 76.6912764,-1.04415248 73.4602205,2.00833267 C69.3268975,5.91354059 65.283854,9.9116297 61.1996304,13.8677386 C60.8907795,14.1668475 60.5634503,14.4481149 60.152705,14.8217386" id="Fill-1" fill="#094FA3" mask="url(#mask-2)"></path>
                    </g>
                    <g id="Group-6" transform="translate(36.000000, 0.000000)">
                        <mask id="mask-4" fill="white">
                            <use xlink:href="#path-3"></use>
                        </mask>
                        <g id="Clip-5"></g>
                        <path d="M18.2645471,24.5052903 C14.5163118,21.0307097 10.7680765,17.675871 7.17548824,14.1698065 C5.63119412,12.6621935 5.50837059,10.6539355 6.43907647,8.74425806 C7.41054706,6.75148387 9.13960588,5.84980645 11.4219,5.90193548 C13.2166059,5.94322581 14.4533118,6.90116129 15.6471353,8.05780645 C17.3063118,9.66554839 18.8119588,9.64541935 20.5346647,8.09341935 C20.8782529,7.78425806 21.1921941,7.44103226 21.5469,7.14477419 C23.6391353,5.39458065 26.6329588,5.42141935 28.5886059,7.19793548 C30.6331941,9.05496774 30.9804882,12.1021935 29.0110765,14.1207742 C25.4698412,17.7501935 21.7205471,21.1865806 18.2645471,24.5052903 M0.282547059,10.1393548 C0.283076471,13.6562581 1.17513529,16.0990968 3.13131176,18.0732903 C7.28137059,22.2616774 11.4753706,26.4092903 15.6910765,30.5357419 C17.2491353,32.059871 18.7309588,32.0516129 20.2916647,30.5491613 C24.4586647,26.5372903 28.6325471,22.5300645 32.7222529,18.4433548 C36.6727235,14.4949677 36.9861353,8.59251613 33.5941941,4.38141935 C30.1429588,0.096 24.1764882,-0.952258065 19.2444882,1.97109677 C18.2476059,2.56154839 17.6366647,2.36025806 16.7599588,1.84929032 C13.1964882,-0.225032258 9.48319412,-0.269419355 5.88795882,1.65522581 C2.20960588,3.62374194 0.361429412,6.79587097 0.282547059,10.1393548" id="Fill-4" fill="#094FA3" mask="url(#mask-4)"></path>
                    </g>
                </g>
            </g>
        </g>
    </g>
</svg>