<?xml version="1.0" encoding="UTF-8"?>
<svg width="129px" height="131px" viewBox="0 0 129 131" version="1.1" xmlns="http://www.w3.org/2000/svg" xmlns:xlink="http://www.w3.org/1999/xlink">
    <title>Group</title>
    <g id="Homepage-&amp;-Mobile" stroke="none" stroke-width="1" fill="none" fill-rule="evenodd">
        <g id="1.1Bravo" transform="translate(-1280.000000, -837.000000)" fill-rule="nonzero">
            <g id="Group" transform="translate(1280.000000, 837.000000)">
                <path d="M32.6196721,64 L32.6196721,58.8481308 C34.473224,58.6728972 36.1606557,58.3049065 37.6819672,57.7441589 C39.2032787,57.1834112 40.5060109,56.4299065 41.5901639,55.4836449 C42.6743169,54.5373832 43.5136612,53.4246495 44.1081967,52.1454439 C44.7027322,50.8662383 45,49.4205607 45,47.8084112 L45,47.8084112 L45,47.703271 C45,46.0911215 44.7377049,44.671729 44.2131148,43.4450935 C43.6885246,42.2184579 42.9016393,41.1582944 41.852459,40.2646028 C40.8032787,39.3709112 39.5005464,38.5998832 37.9442623,37.9515187 C36.3879781,37.3031542 34.5606557,36.7336449 32.4622951,36.2429907 L32.4622951,36.2429907 L32.4622951,30.1448598 C33.6513661,30.4252336 34.8491803,30.828271 36.0557377,31.353972 C37.2622951,31.8796729 38.4076503,32.5280374 39.4918033,33.2990654 L39.4918033,33.2990654 L43.7934426,26.2546729 C42.2196721,25.1682243 40.5234973,24.2745327 38.704918,23.5735981 C36.8863388,22.8726636 34.8928962,22.3995327 32.7245902,22.1542056 L32.7245902,22.1542056 L32.7245902,19 L27.2688525,19 L27.2688525,21.9964953 C25.2754098,22.1366822 23.5005464,22.5046729 21.9442623,23.1004673 C20.3879781,23.6962617 19.0765027,24.4760514 18.0098361,25.4398364 C16.9431694,26.4036215 16.1300546,27.5338785 15.5704918,28.8306075 C15.010929,30.1273364 14.7311475,31.546729 14.7311475,33.088785 L14.7311475,33.088785 L14.7311475,33.1939252 C14.7311475,34.8411215 15.0021858,36.260514 15.5442623,37.4521028 C16.0863388,38.6436916 16.8907104,39.6863318 17.957377,40.5800234 C19.0240437,41.473715 20.3530055,42.2359813 21.9442623,42.8668224 C23.5355191,43.4976636 25.3803279,44.0584112 27.4786885,44.5490654 L27.4786885,44.5490654 L27.4786885,50.8574766 C25.8349727,50.5771028 24.2174863,50.0864486 22.6262295,49.385514 C21.0349727,48.6845794 19.4,47.7383178 17.7213115,46.546729 L17.7213115,46.546729 L13,53.5385514 C14.9934426,54.9754673 17.2054645,56.1320093 19.6360656,57.0081776 C22.0666667,57.8843458 24.5759563,58.4626168 27.1639344,58.7429907 L27.1639344,58.7429907 L27.1639344,64 L32.6196721,64 Z M28,35 C26.3921569,34.5925926 25.3235294,34.1574074 24.7941176,33.6944444 C24.2647059,33.2314815 24,32.6296296 24,31.8888889 L24,31.8888889 L24,31.7777778 C24,31.037037 24.3039216,30.4166667 24.9117647,29.9166667 C25.5196078,29.4166667 26.5490196,29.1111111 28,29 L28,29 L28,35 Z M32,52 L32,46 C33.5522388,46.4 34.6069652,46.8363636 35.1641791,47.3090909 C35.721393,47.7818182 36,48.3818182 36,49.1090909 L36,49.1090909 L36,49.2181818 C36,50.8181818 34.6666667,51.7454545 32,52 L32,52 Z" id="$" fill="#094FA3"></path>
                <path d="M102.329671,72.6486871 L102.329671,0 L0,0 L0,113.612218 C0,123.200027 7.82911884,131 17.452142,131 L111.547858,131 C121.171156,131 129,123.199754 129,113.612218 L129,72.6486871 L102.329671,72.6486871 Z M94.095716,113.612218 C94.095716,116.982253 95.0662248,120.129423 96.7385411,122.79641 L17.452142,122.79641 C12.3690471,122.79641 8.23395496,118.676294 8.23395496,113.612218 L8.13823895,9 L94,9 L94.095716,113.612218 Z M120.76632,113.612218 C120.76632,118.676568 116.630953,122.79641 111.548132,122.79641 C106.465312,122.79641 102.329945,118.676294 102.329945,113.612218 L102.329945,80.8522768 L120.766594,80.8522768 L120.766594,113.612218 L120.76632,113.612218 Z" id="Shape" fill="#0C204A"></path>
                <polygon id="Path" fill="#0C204A" points="54 21 84 21 84 29 54 29"></polygon>
                <polygon id="Path" fill="#0C204A" points="16 72 84 72 84 80 16 80"></polygon>
                <polygon id="Path" fill="#0C204A" points="54 38 84 38 84 46 54 46"></polygon>
                <polygon id="Path" fill="#0C204A" points="17 90 47 90 47 98 17 98"></polygon>
                <polygon id="Path" fill="#0C204A" points="17 106 47 106 47 114 17 114"></polygon>
                <polygon id="Path" fill="#0C204A" points="54 55 84 55 84 63 54 63"></polygon>
                <path d="M54,114 L84,114 L84,89 L54,89 L54,114 Z M62.3397426,97.3330556 L75.6602574,97.3330556 L75.6602574,105.666944 L62.3397426,105.666944 L62.3397426,97.3330556 Z" id="Shape" fill="#0C204A"></path>
            </g>
        </g>
    </g>
</svg>