<?xml version="1.0" encoding="UTF-8"?>
<svg width="73px" height="74px" viewBox="0 0 73 74" version="1.1" xmlns="http://www.w3.org/2000/svg" xmlns:xlink="http://www.w3.org/1999/xlink">
    <title>Group 3</title>
    <g id="Homepage-&amp;-Mobile" stroke="none" stroke-width="1" fill="none" fill-rule="evenodd">
        <g id="1.1Bravo" transform="translate(-893.000000, -1119.000000)" fill="#094FA3">
            <g id="Group-4" transform="translate(-2.000000, 1016.000000)">
                <g id="Group-3" transform="translate(895.000000, 103.000000)">
                    <path d="M28.474857,70 C30.426735,70.0095787 31.986385,68.4712265 31.9999224,66.5226232 C32.0127473,64.59897 30.4349287,63.0071532 28.507988,63 C26.557535,62.992896 25.0075037,64.535169 25,66.4898316 C24.9932538,68.4526921 26.5144291,69.9899751 28.474857,70 L28.474857,70 Z M54.5456967,69.9998074 C56.4622682,69.9805556 58.0420824,68.3598372 57.9991449,66.4564023 C57.9558526,64.5173158 56.3572312,62.9621962 54.4470471,63.0006999 C52.5077649,63.0406296 50.973727,64.6221313 51.0003411,66.5548005 C51.0266004,68.4849741 52.6060597,70.0197723 54.5456967,69.9998074 L54.5456967,69.9998074 Z M48,33 L36,33 C36.3019468,37.3562669 36.6004581,41.6640774 36.9012597,46 L47.103321,46 C47.4025958,41.6622279 47.6980532,37.3777209 48,33 L48,33 Z M35,16 C35.2937892,20.3544691 35.5860965,24.6890313 35.8765514,29 L48.1323401,29 C48.4231655,24.6396325 48.7099156,20.3463589 49,16 L35,16 Z M67,33 L52.848449,33 C52.5640648,37.3349026 52.2836606,41.6056391 52,45.9291099 C52.2836606,45.9541863 52.5166675,45.9921697 52.7500362,45.9925385 C55.6069034,45.9965949 58.464856,46.0080268 61.3217232,45.9906946 C63.7035313,45.9759438 65.5292344,44.291398 65.8469053,41.8670977 C66.0057407,40.6534725 66.1815814,39.4420599 66.3389696,38.2280659 C66.5622075,36.5040617 66.7756766,34.7785823 67,33 L67,33 Z M67.7543682,29 C68.1519102,25.9474228 68.5406096,22.9633565 68.9289406,19.9789238 C69.2944287,17.1666839 68.2694411,16.0063969 65.4030128,16.0027332 C61.9128233,15.997604 58.4226338,16.0012677 54.9324442,16.0012677 L53.8617706,16.0012677 C53.571075,20.3819284 53.2873797,24.6673335 53,29 L67.7543682,29 Z M16,33 C16.5880562,37.3697355 17.1682915,41.6765384 17.7503889,46 L33,46 C32.7191929,41.6217501 32.4421101,37.3134664 32.1653997,33 L16,33 Z M14,16 C14.5891926,20.4045326 15.1625606,24.6960057 15.7381366,29 L32,29 C31.7044837,24.6271388 31.4130155,20.315779 31.1211793,16 L14,16 Z M61.3563945,62.4025565 C62.2414854,64.6038227 62.4901189,66.7328437 61.6171474,68.9097825 C61.0060307,70.434303 60.0750326,71.6952762 58.7238917,72.613822 C55.9690921,74.4859303 52.3431574,74.4534937 49.679805,72.5666414 C46.5360796,70.3392048 45.7538208,67.368675 47.0421606,62.45158 C43.3490177,62.45158 39.6683616,62.45158 35.9873383,62.4508428 C37.1937796,67.3996372 36.3064852,70.6842124 33.2310697,72.6543677 C30.2155171,74.5865575 26.5407372,74.4133165 23.8186235,72.2525961 C21.5107765,70.4206649 19.7273734,66.779287 21.7079938,62.3513214 C20.885704,61.9867782 20.0285246,61.6841594 19.2470004,61.245528 C16.5931966,59.7560242 15.0617323,57.4825128 14.6614214,54.444161 C13.2408689,43.6656235 11.8137057,32.8878232 10.3865425,22.1103915 C9.77946558,17.5261404 9.19883125,12.9378347 8.52858605,8.36279857 C8.39012992,7.41771376 7.99238989,6.4803695 7.5579241,5.61858779 C7.12456008,4.75791188 6.37168191,4.27762892 5.31251087,4.34987409 C4.33964537,4.4158531 3.35723117,4.38783967 2.3806931,4.35614026 C0.917905905,4.30859114 -0.0446763781,3.38119902 0.001598085,2.11285392 C0.0471380328,0.86736188 0.992091949,0.0557094781 2.436149,0.0380167827 C3.32197444,0.0273274459 4.213676,0.099204021 5.09325805,0.0247472611 C8.76803803,-0.2863493 11.1430932,2.39077667 12.0311222,4.95179434 C12.6161636,6.63849796 12.7979562,8.46674316 13.1508907,10.2338011 C13.2346255,10.6532654 13.2797982,11.0804703 13.3609621,11.6252579 L14.4223367,11.6252579 C31.4421577,11.6252579 48.4612441,11.6226777 65.4810651,11.6278381 C69.0012296,11.6289439 71.6877193,13.466404 72.6811512,16.5250287 C73.2515023,18.2810287 72.9283156,20.0447693 72.6969433,21.8051925 C71.7975293,28.6367845 70.8569825,35.4632162 70.0082501,42.3010743 C69.3600403,47.5277915 65.7524685,50.811998 60.4874629,50.8123666 C46.8901159,50.8134724 33.2927689,50.8127352 19.695422,50.8127352 L18.5179939,50.8127352 C18.7141095,52.1385816 18.83457,53.385548 19.0938539,54.602658 C19.470293,56.3689788 21.1001824,57.784763 22.8883599,57.9992869 C23.3720382,58.0567882 23.8634289,58.0700577 24.3511471,58.0700577 C38.2845348,58.0741123 52.2182898,58.0711635 66.1513103,58.084433 C66.751042,58.0851702 67.3926411,58.1223986 67.939855,58.3358168 C68.8025432,58.671978 69.2564737,59.7199016 69.0864334,60.6233348 C68.8998665,61.6122828 68.0764749,62.359062 67.0165693,62.3867068 C65.4898793,62.4261468 63.9609857,62.4003449 62.4335612,62.4021879 C62.1056001,62.4029251 61.7772718,62.4025565 61.3563945,62.4025565 L61.3563945,62.4025565 Z" id="Fill-1"></path>
                </g>
            </g>
        </g>
    </g>
</svg>